<svg width="16" height="28" viewBox="0 0 16 28" fill="none" xmlns="http://www.w3.org/2000/svg">
<path d="M0.554272 27.4466C0.184757 27.0777 0 26.6409 0 26.1363C0 25.6326 0.184757 25.1963 0.554272 24.8274L11.3811 14.0184L0.517321 3.1726C0.17244 2.82828 0 2.39789 0 1.88142C0 1.36495 0.184757 0.922266 0.554272 0.55336C0.923787 0.184453 1.36129 0 1.86679 0C2.3713 0 2.80831 0.184453 3.17783 0.55336L15.5935 12.9855C15.7413 13.1331 15.8463 13.2929 15.9084 13.4651C15.9695 13.6372 16 13.8217 16 14.0184C16 14.2152 15.9695 14.3996 15.9084 14.5718C15.8463 14.744 15.7413 14.9038 15.5935 15.0514L3.14088 27.4835C2.796 27.8278 2.3713 28 1.86679 28C1.36129 28 0.923787 27.8155 0.554272 27.4466Z"/>
</svg>
