<svg width="16" height="28" viewBox="0 0 16 28" fill="none" xmlns="http://www.w3.org/2000/svg">
<path d="M15.4457 0.55336C15.8152 0.922266 16 1.35905 16 1.86372C16 2.3674 15.8152 2.80369 15.4457 3.1726L4.61894 13.9816L15.4827 24.8274C15.8276 25.1717 16 25.6021 16 26.1186C16 26.635 15.8152 27.0777 15.4457 27.4466C15.0762 27.8155 14.6387 28 14.1332 28C13.6287 28 13.1917 27.8155 12.8222 27.4466L0.406468 15.0145C0.258661 14.8669 0.15372 14.7071 0.0916416 14.5349C0.0305483 14.3628 2.16201e-06 14.1783 2.17921e-06 13.9816C2.19641e-06 13.7848 0.0305484 13.6004 0.0916417 13.4282C0.15372 13.256 0.258662 13.0962 0.406468 12.9486L12.8591 0.51647C13.204 0.172157 13.6287 -2.07306e-07 14.1332 -1.632e-07C14.6387 -1.19008e-07 15.0762 0.184454 15.4457 0.55336Z"/>
</svg>
