<svg width="36" height="48" viewBox="0 0 36 48" fill="none" xmlns="http://www.w3.org/2000/svg">
<path d="M36 26.64L35.9618 37.0039L18.0445 47.4185L18.07 37.0547L36 26.64Z" fill="#593C40"/>
<path d="M18.07 37.0547L18.0445 47.4185L0 37.0039L0.0254342 26.64L18.07 37.0547Z" fill="#473438"/>
<path d="M36 26.64L18.07 37.0547L0.0254342 26.64L17.9556 16.2127L36 26.64Z" fill="#8C6A5E"/>
<path d="M35.9999 26.631L35.9744 31.8084L18.0508 42.2395L18.0635 37.0494L35.9999 26.631Z" fill="#42A94E"/>
<path d="M18.0635 37.0494L18.0508 42.2395L0 31.8084L0.0127197 26.631L18.0635 37.0494Z" fill="#4C793E"/>
<path d="M35.9999 26.631L18.0635 37.0494L0.0127197 26.631L17.9491 16.2127L35.9999 26.631Z" fill="#80C74F"/>
<path d="M20.5428 28.2449C20.5452 27.4017 19.3653 26.7148 17.9074 26.7107C16.4495 26.7065 15.2657 27.3867 15.2633 28.2299C15.2609 29.0731 16.4408 29.76 17.8987 29.7641C19.3566 29.7682 20.5404 29.088 20.5428 28.2449Z" fill="#4C793E"/>
<path d="M18.3453 5.36057C20.0789 3.67788 22.7537 3.14904 24.0415 2.95673C25.3293 2.76442 25.8494 2.64423 27.2363 2.06731C28.6232 1.49038 29.5643 0.240384 29.5643 0.240384L29.168 0C29.168 0 29.1185 0.0480769 28.4746 0.76923C27.8307 1.49038 26.1961 2.16346 25.5522 2.40384C24.9083 2.64423 23.8186 2.64423 21.6887 3.17307C19.5588 3.70192 17.9243 5.09615 17.9243 5.09615L18.3453 5.36057Z" fill="#E29394"/>
<path d="M27.2363 2.06731C25.8494 2.64423 25.3293 2.76442 24.0415 2.95673C22.7586 3.14904 20.0987 3.67307 18.3651 5.34134V15.4471C18.6078 15.125 19.4102 14.6154 19.4102 14.6154C20.8962 13.6058 22.5803 13.2692 23.6205 13.125C24.6606 12.9808 25.7999 12.7404 27.1868 12.1635C28.5737 11.5865 29.5643 10.3365 29.5643 10.3365V0.240384C29.5643 0.240384 28.6232 1.49038 27.2363 2.06731Z" fill="#D36266"/>
<path d="M18.3651 5.36538L18.3502 28.2849C18.3502 28.3714 18.2907 28.4531 18.1768 28.5156C17.944 28.6454 17.5725 28.6406 17.3397 28.5108C17.2258 28.4435 17.1664 28.357 17.1664 28.2752L17.1813 5.35577C17.1813 5.4423 17.2407 5.52884 17.3547 5.59134C17.5875 5.72115 17.959 5.72596 18.1918 5.59615C18.3057 5.53365 18.3651 5.45192 18.3651 5.36538Z" fill="#ADB7C1"/>
<path d="M18.3611 5.36542C18.3625 5.18221 18.0998 5.03168 17.7743 5.0292C17.4488 5.02672 17.1837 5.17323 17.1822 5.35644C17.1807 5.53965 17.4434 5.69018 17.7689 5.69266C18.0945 5.69514 18.3596 5.54863 18.3611 5.36542Z" fill="#D7E0E7"/>
</svg>
