<svg width="36" height="32" viewBox="0 0 36 32" fill="none" xmlns="http://www.w3.org/2000/svg">
<path d="M36 10.4184L35.9746 20.7859L18.0382 31.2042L18.0763 20.8367L36 10.4184Z" fill="#593C40"/>
<path d="M18.0763 20.8367L18.0382 31.2042L0 20.7859L0.0254417 10.4184L18.0763 20.8367Z" fill="#473438"/>
<path d="M36 10.4184L18.0763 20.8367L0.0254417 10.4184L17.9618 0L36 10.4184Z" fill="#8C6A5E"/>
<path d="M36 10.4184L35.9873 15.6085L18.0509 26.0269L18.0636 20.8495L36 10.4184Z" fill="#42A94E"/>
<path d="M18.0636 20.8495L18.0509 26.0269L0 15.6085L0.0127208 10.4184L18.0636 20.8495Z" fill="#4C793E"/>
<path d="M36 10.4184L18.0636 20.8495L0.0127208 10.4184L17.9491 0L36 10.4184Z" fill="#80C74F"/>
</svg>
