<svg width="81" height="81" viewBox="0 0 81 81" fill="none" xmlns="http://www.w3.org/2000/svg">
<path d="M47.0384 7.44262C45.7071 8.21128 44.6481 10.1201 46.2344 12.8677L47.5233 15.1001C48.4487 16.7029 47.8774 18.7881 46.2566 19.7239C44.6359 20.6596 42.5444 20.1117 41.619 18.509L38.3142 12.7848C37.5871 11.5255 36.645 10.6957 35.6447 10.4337C33.3962 9.74746 29.9892 11.8671 32.4678 16.1603L35.7726 21.8844C36.698 23.4872 36.1268 25.5724 34.506 26.5081C32.8852 27.4439 30.7937 26.896 29.8684 25.2932L25.3738 17.5084C23.7875 14.7608 21.6627 14.69 20.2735 15.4921C18.8843 16.2942 17.8832 18.1696 19.4695 20.9172L23.931 28.6448C24.8564 30.2476 24.2852 32.3328 22.6644 33.2686C21.0436 34.2043 18.9521 33.6564 18.0268 32.0537L13.3339 23.9254C11.8467 21.3495 8.10102 22.7489 7.37254 25.2302C7.14901 26.0461 7.26438 27.048 7.69401 27.7921L23.3259 54.8674C24.2512 56.4701 23.68 58.5553 22.0592 59.4911C20.4384 60.4269 18.347 59.879 17.4216 58.2762L15.7361 55.3569L15.1391 60.2046C14.9732 61.5215 15.2538 62.8096 15.9727 63.921C16.6915 65.0324 17.7495 65.7954 18.9977 66.2196L43.2435 73.5914C44.7315 74.0298 46.3933 73.8336 47.7247 73.0649L65.8427 62.6045C73.8308 57.9925 75.8674 50.5583 71.3068 42.659L52.1387 9.4589C50.5524 6.7113 48.4277 6.64054 47.0384 7.44262Z" fill="#FBFDFD"/>
<path d="M40.2765 5.08821C35.0775 1.83147 28.4544 4.12889 25.9226 9.1014C20.2934 6.70363 13.7277 10.0364 12.287 15.8291C7.83925 15.3441 2.34017 18.519 0.941107 23.4482C0.24568 25.9867 0.58357 28.8445 1.9055 31.1341L10.2667 45.6162L8.58324 59.4103C8.20188 62.2254 8.87045 65.1213 10.4073 67.5158C11.9442 69.9104 14.3162 71.7464 17.1103 72.5755L41.1494 79.9904C44.4312 80.9958 48.0525 80.5841 51.0626 78.8463L69.1806 68.3859C80.4682 61.869 83.6555 50.4122 77.178 39.1929L58.0099 5.99282C53.284 -2.19271 43.9329 -0.609934 40.2765 5.08821ZM71.3068 42.659C75.8674 50.5583 73.8308 57.9925 65.8427 62.6045L47.7247 73.0649C46.3354 73.867 44.7315 74.0298 43.2435 73.5914L19.1714 66.1193C17.9231 65.6952 16.8652 64.9322 16.1463 63.8208C15.4275 62.7094 15.1469 61.4213 15.3127 60.1044L15.9098 55.2566L17.5953 58.1759C18.5206 59.7787 20.6121 60.3266 22.2329 59.3908C23.8537 58.4551 24.4249 56.3699 23.4996 54.7671L7.83462 27.6346C7.40499 26.8905 7.26479 25.9793 7.51315 25.0727C8.18374 22.6248 11.9873 21.192 13.4745 23.7679L18.2004 31.9534C19.1258 33.5562 21.2173 34.1041 22.838 33.1683C24.4588 32.2325 25.0301 30.1473 24.1047 28.5446L19.6432 20.817C18.0569 18.0694 19.0579 16.1939 20.4472 15.3919C21.8364 14.5898 23.9611 14.6605 25.5475 17.4081L30.009 25.1357C30.9343 26.7385 33.0258 27.2864 34.6466 26.3506C36.2674 25.4149 36.698 23.4872 35.7726 21.8844L32.4678 16.1603C29.9892 11.8671 33.3962 9.74746 35.6447 10.4337C36.645 10.6957 37.5871 11.5255 38.3142 12.7848L41.619 18.509C42.5444 20.1117 44.6359 20.6596 46.2566 19.7239C47.8774 18.7881 48.4487 16.7029 47.5233 15.1001L46.2344 12.8677C44.6481 10.1201 45.6492 8.2447 47.0384 7.44262C48.4277 6.64054 50.5524 6.7113 52.1387 9.4589L71.3068 42.659Z" fill="#473438"/>
</svg>
