<svg width="36" height="32" viewBox="0 0 36 32" fill="none" xmlns="http://www.w3.org/2000/svg">
<path d="M36 10.4184L35.9746 20.7859L18.0382 31.2042L18.0763 20.8367L36 10.4184Z" fill="#593C40"/>
<path d="M18.0763 20.8367L18.0382 31.2042L0 20.7859L0.0254417 10.4184L18.0763 20.8367Z" fill="#473438"/>
<path d="M36 10.4184L18.0763 20.8367L0.0254417 10.4184L17.9618 0L36 10.4184Z" fill="#8C6A5E"/>
<path d="M7.45442 7.08551L6.51307 8.51025L7.46714 9.08269L9.59152 8.80283L11.5251 7.54346L7.45442 7.08551Z" fill="#6B565A"/>
<path d="M8.59929 4.66855L9.08269 6.61484L11.5251 7.58162V6.11873L8.59929 4.66855Z" fill="#8D8A91"/>
<path d="M8.1159 8.06502L9.08269 6.61484L11.5251 7.58162L9.08269 8.56113L8.1159 8.06502Z" fill="#524D5B"/>
<path d="M8.59929 4.66855L9.08269 6.61484L8.1159 8.06502L7.1364 6.61484L7.61979 5.15194L8.59929 4.66855Z" fill="#726D7A"/>
<path d="M23.7498 13.624L22.7576 15.4685L22.8466 16.1682H24.4368L25.6325 15.7739L27.0191 15.176L23.7498 13.624Z" fill="#6B565A"/>
<path d="M26.5357 10.8L24.564 11.7286L25.2 13.9929L27.9223 14.4L28.571 13.4205L26.5357 10.8Z" fill="#8D8A91"/>
<path d="M24.564 11.7286L23.7498 13.0134V14.6417L24.564 14.9852L25.2 13.9929L24.564 11.7286Z" fill="#726D7A"/>
<path d="M27.9223 14.4L26.9936 15.1632L25.6071 15.2777L24.564 14.9852L25.2 13.9929L27.9223 14.4Z" fill="#524D5B"/>
<path d="M12.6445 17.5675L14.5908 16.0792L14.5272 16.2064L14.6163 14.6799V14.6417L14.6544 14.6163L15.9774 13.7894L14.7435 14.7562L14.7816 14.6799L14.8707 16.2064V16.2827L14.8071 16.3463L13.0643 18.0382L12.6445 17.5675Z" fill="#473438"/>
<path d="M21.7018 2.23887L20.2643 3.68905L20.188 3.76537H20.1117L18.8396 3.68905L18.9286 3.65088L17.5802 4.83392L17.5675 4.84664L15.9138 5.33004L17.5548 4.80848L18.7378 3.46007L18.7633 3.42191H18.8396L20.1117 3.34558L19.9463 3.42191L21.2184 1.81908L21.7018 2.23887Z" fill="#473438"/>
<path d="M19.8572 5.07562L21.1548 3.81625L21.1166 4.00707L20.4551 3.06572L21.0276 2.77314L21.3837 3.86714L21.4346 3.99435L21.3456 4.05795L19.8572 5.07562Z" fill="#473438"/>
</svg>
