<svg width="1704" height="477" viewBox="0 0 1704 477" fill="none" xmlns="http://www.w3.org/2000/svg">
<path d="M175.8 299.6L175.4 426.4L149.1 441.7L149.4 314.9L175.8 299.6Z" fill="#AC6E3D"/>
<path d="M149.4 314.9L149.1 441.7L122.6 426.4L123 299.6L149.4 314.9Z" fill="#784C2A"/>
<path d="M175.8 299.6L149.4 314.9L123 299.6L149.3 284.3L175.8 299.6Z" fill="#C07A44"/>
<path d="M148.8 122.2L0 316.8H148.8H297.6L148.8 122.2Z" fill="#386622"/>
<path d="M148.8 59.5L26.5 219.5H271.2L148.8 59.5Z" fill="#41772B"/>
<path d="M148.8 0L52.1 126.5H148.8H245.6L148.8 0Z" fill="#5DAB3E"/>
<path d="M200.5 219.5L148.8 126.5H175.3L118.3 40L52.1 126.5H97.6L26.5 219.5H74.4L0 316.8H148.8H216.7L164.9 219.5H200.5Z" fill="#2D2D2D" fill-opacity="0.2"/>
<path d="M149.1 441.1L85.8 476H23.2L123.3 426L149.1 441.1Z" fill="#2D2D2D" fill-opacity="0.2"/>
<path d="M1581.8 299.6L1581.4 426.4L1555.1 441.7L1555.4 314.9L1581.8 299.6Z" fill="#AC6E3D"/>
<path d="M1555.4 314.9L1555.1 441.7L1528.6 426.4L1529 299.6L1555.4 314.9Z" fill="#784C2A"/>
<path d="M1581.8 299.6L1555.4 314.9L1529 299.6L1555.3 284.3L1581.8 299.6Z" fill="#C07A44"/>
<path d="M1554.8 122.2L1406 316.8H1554.8H1703.6L1554.8 122.2Z" fill="#386622"/>
<path d="M1554.8 59.5L1432.5 219.5H1677.2L1554.8 59.5Z" fill="#41772B"/>
<path d="M1554.8 0L1458.1 126.5H1554.8H1651.6L1554.8 0Z" fill="#5DAB3E"/>
<path d="M1606.5 219.5L1554.8 126.5H1581.3L1524.3 40L1458.1 126.5H1503.6L1432.5 219.5H1480.4L1406 316.8H1554.8H1622.7L1570.9 219.5H1606.5Z" fill="#2D2D2D" fill-opacity="0.2"/>
<path d="M1555.1 441.1L1491.8 476H1429.2L1529.3 426L1555.1 441.1Z" fill="#2D2D2D" fill-opacity="0.2"/>
<path d="M261.9 359.7L261.7 443.3L244.3 453.4L244.6 369.7L261.9 359.7Z" fill="#AC6E3D"/>
<path d="M244.6 369.7L244.3 453.4L226.9 443.3L227.1 359.7L244.6 369.7Z" fill="#784C2A"/>
<path d="M261.9 359.7L244.6 369.7L227.1 359.7L244.4 349.6L261.9 359.7Z" fill="#C07A44"/>
<path d="M244.1 242.7L146 371H244.1H342.3L244.1 242.7Z" fill="#386622"/>
<path d="M244.1 201.3L163.5 306.9H324.8L244.1 201.3Z" fill="#41772B"/>
<path d="M244.1 162.1L180.4 245.5H244.1H307.9L244.1 162.1Z" fill="#5DAB3E"/>
<path d="M278.2 306.9L244.1 245.5H261.6L224 188.4L180.4 245.5H210.4L163.5 306.9H195.1L146 371H244.1H288.9L254.7 306.9H278.2Z" fill="#2D2D2D" fill-opacity="0.2"/>
<path d="M244.3 453L202.6 476H161.3L227.3 443L244.3 453Z" fill="#2D2D2D" fill-opacity="0.2"/>
<path d="M1443.9 359.7L1443.7 443.3L1426.3 453.4L1426.6 369.7L1443.9 359.7Z" fill="#AC6E3D"/>
<path d="M1426.6 369.7L1426.3 453.4L1408.9 443.3L1409.1 359.7L1426.6 369.7Z" fill="#784C2A"/>
<path d="M1443.9 359.7L1426.6 369.7L1409.1 359.7L1426.4 349.6L1443.9 359.7Z" fill="#C07A44"/>
<path d="M1426.1 242.7L1328 371H1426.1H1524.3L1426.1 242.7Z" fill="#386622"/>
<path d="M1426.1 201.3L1345.5 306.9H1506.8L1426.1 201.3Z" fill="#41772B"/>
<path d="M1426.1 162.1L1362.4 245.5H1426.1H1489.9L1426.1 162.1Z" fill="#5DAB3E"/>
<path d="M1460.2 306.9L1426.1 245.5H1443.6L1406 188.4L1362.4 245.5H1392.4L1345.5 306.9H1377.1L1328 371H1426.1H1470.9L1436.7 306.9H1460.2Z" fill="#2D2D2D" fill-opacity="0.2"/>
<path d="M1426.3 453L1384.6 476H1343.3L1409.3 443L1426.3 453Z" fill="#2D2D2D" fill-opacity="0.2"/>
<path d="M416.3 443L356 476H288.9L384.3 435L416.3 443Z" fill="#2D2D2D" fill-opacity="0.2"/>
<path d="M415.5 401.7L445.6 392.5L446.3 433.8L416.2 442.9L415.5 401.7Z" fill="#DCE9EA"/>
<path d="M384.8 393.7L414.8 384.5L445.6 392.5L415.5 401.7L384.8 393.7Z" fill="white"/>
<path d="M415.5 401.7L416.2 442.9L385.5 434.9L384.8 393.7L415.5 401.7Z" fill="#A0A9AA"/>
<path d="M643.3 440L562.5 476.1H846.1L890.3 456L768.3 431L643.3 440Z" fill="#2D2D2D" fill-opacity="0.2"/>
<path d="M739.9 336L834.7 307.1L837 437.1L742.2 465.9L739.9 336Z" fill="#DCE9EA"/>
<path d="M643.1 310.8L737.9 282L834.7 307.1L739.9 336L643.1 310.8Z" fill="white"/>
<path d="M739.9 336L742.2 465.9L645.4 440.8L643.1 310.8L739.9 336Z" fill="#A0A9AA"/>
<path d="M845 407.2L889.2 393.7L890.3 454.4L846.1 467.9L845 407.2Z" fill="#DCE9EA"/>
<path d="M799.8 395.5L844 382L889.2 393.7L845 407.2L799.8 395.5Z" fill="white"/>
<path d="M845 407.2L846.1 467.9L800.9 456.2L799.8 395.5L845 407.2Z" fill="#A0A9AA"/>
<path d="M1117.3 426L989.3 476.1H1191.3L1271.3 431L1117.3 426Z" fill="#2D2D2D" fill-opacity="0.2"/>
<path d="M1148.5 394.7L1178.6 385.5L1179.3 426.8L1149.2 435.9L1148.5 394.7Z" fill="#DCE9EA"/>
<path d="M1117.8 386.7L1147.8 377.5L1178.6 385.5L1148.5 394.7L1117.8 386.7Z" fill="white"/>
<path d="M1148.5 394.7L1149.2 435.9L1118.5 427.9L1117.8 386.7L1148.5 394.7Z" fill="#A0A9AA"/>
<path d="M1217.4 372.9L1269.9 356.9L1271.2 428.9L1218.7 444.9L1217.4 372.9Z" fill="#DCE9EA"/>
<path d="M1163.8 359L1216.3 343L1269.9 356.9L1217.4 372.9L1163.8 359Z" fill="white"/>
<path d="M1217.4 372.9L1218.7 444.9L1165.1 431L1163.8 359L1217.4 372.9Z" fill="#A0A9AA"/>
</svg>
