<svg width="1440" height="1024" viewBox="0 0 1440 1024" fill="none" xmlns="http://www.w3.org/2000/svg">
<g clip-path="url(#clip0_750_1073)">
<rect width="1440" height="1024" fill="url(#paint0_linear_750_1073)"/>
<rect width="40" height="40" transform="translate(864 865)" fill="#2C8492"/>
<rect opacity="0.75" x="864" y="865" width="40" height="40" fill="white"/>
<rect width="40" height="40" transform="translate(1221 250)" fill="#2C8492"/>
<rect opacity="0.75" x="1221" y="250" width="40" height="40" fill="white"/>
<rect width="40" height="40" transform="translate(121 749)" fill="#2C8492"/>
<rect opacity="0.75" x="121" y="749" width="40" height="40" fill="white"/>
<rect width="40" height="40" transform="translate(-20 483)" fill="#2C8492"/>
<rect opacity="0.75" x="-20" y="483" width="40" height="40" fill="white"/>
<rect width="24" height="24" transform="translate(919 918)" fill="#2C8492"/>
<rect opacity="0.75" x="919" y="918" width="24" height="24" fill="white"/>
<rect width="24" height="24" transform="translate(1183 301)" fill="#2C8492"/>
<rect opacity="0.75" x="1183" y="301" width="24" height="24" fill="white"/>
<rect width="24" height="24" transform="translate(406 1012)" fill="#2C8492"/>
<rect opacity="0.75" x="406" y="1012" width="24" height="24" fill="white"/>
<rect width="24" height="24" transform="translate(190 815)" fill="#2C8492"/>
<rect opacity="0.75" x="190" y="815" width="24" height="24" fill="white"/>
<rect width="24" height="24" transform="translate(161 713)" fill="#2C8492"/>
<rect opacity="0.75" x="161" y="713" width="24" height="24" fill="white"/>
<rect width="24" height="24" transform="translate(20 537)" fill="#2C8492"/>
<rect opacity="0.75" x="20" y="537" width="24" height="24" fill="white"/>
</g>
<defs>
<linearGradient id="paint0_linear_750_1073" x1="720" y1="0" x2="720" y2="1024" gradientUnits="userSpaceOnUse">
<stop stop-color="#2C8492"/>
<stop offset="1" stop-color="#70D6DF"/>
</linearGradient>
<clipPath id="clip0_750_1073">
<rect width="1440" height="1024" fill="white"/>
</clipPath>
</defs>
</svg>
