<svg width="1440" height="1024" viewBox="0 0 1440 1024" fill="none" xmlns="http://www.w3.org/2000/svg">
<g clip-path="url(#clip0_750_1136)">
<rect width="1440" height="1024" fill="url(#paint0_linear_750_1136)"/>
<g opacity="0.5">
<rect width="40" height="40" transform="translate(840 692)" fill="#2C8492"/>
<rect opacity="0.75" x="840" y="692" width="40" height="40" fill="white"/>
<rect width="40" height="40" transform="translate(271 164)" fill="#2C8492"/>
<rect opacity="0.75" x="271" y="164" width="40" height="40" fill="white"/>
<rect width="40" height="40" transform="translate(90 737)" fill="#2C8492"/>
<rect opacity="0.75" x="90" y="737" width="40" height="40" fill="white"/>
<rect width="40" height="40" transform="translate(1296 140)" fill="#2C8492"/>
<rect opacity="0.75" x="1296" y="140" width="40" height="40" fill="white"/>
<rect width="40" height="40" transform="translate(-20 483)" fill="#2C8492"/>
<rect opacity="0.75" x="-20" y="483" width="40" height="40" fill="white"/>
<rect width="24" height="24" transform="translate(894 745)" fill="#2C8492"/>
<rect opacity="0.75" x="894" y="745" width="24" height="24" fill="white"/>
<rect width="24" height="24" transform="translate(1183 301)" fill="#2C8492"/>
<rect opacity="0.75" x="1183" y="301" width="24" height="24" fill="white"/>
<rect width="24" height="24" transform="translate(190 815)" fill="#2C8492"/>
<rect opacity="0.75" x="190" y="815" width="24" height="24" fill="white"/>
<rect width="24" height="24" transform="translate(1396 218)" fill="#2C8492"/>
<rect opacity="0.75" x="1396" y="218" width="24" height="24" fill="white"/>
<rect width="24" height="24" transform="translate(311 128)" fill="#2C8492"/>
<rect opacity="0.75" x="311" y="128" width="24" height="24" fill="white"/>
<rect width="24" height="24" transform="translate(130 701)" fill="#2C8492"/>
<rect opacity="0.75" x="130" y="701" width="24" height="24" fill="white"/>
<rect width="24" height="24" transform="translate(1336 104)" fill="#2C8492"/>
<rect opacity="0.75" x="1336" y="104" width="24" height="24" fill="white"/>
<rect width="24" height="24" transform="translate(20 537)" fill="#2C8492"/>
<rect opacity="0.75" x="20" y="537" width="24" height="24" fill="white"/>
</g>
<path d="M835.346 954.574C825.518 956.026 815.652 957.64 805.621 956.906C803.114 956.722 801.193 957.402 799.117 958.735C793.367 962.468 787.599 966.127 780.141 964.868C779.579 964.768 778.771 965.265 778.182 965.711C770.131 971.137 762.115 976.709 754.172 982.264C745.034 988.637 735.223 993.782 725.271 998.651C720.011 1001.19 717.99 1000.12 717.096 994.325C715.742 985.245 712.3 977.116 707.561 969.367C705.042 965.181 705.99 962.649 710.373 960.314C713.325 958.777 716.551 958.407 719.674 957.6C731.397 954.704 742.983 951.223 753.924 945.969C766.127 940.188 777.992 933.947 791.663 932.135C794.872 931.693 797.268 932.057 800.027 933.645C804.678 936.408 809.575 938.574 815.225 936.714C828.792 932.154 841.884 926.55 855.311 921.715C862.902 918.938 870.323 915.431 878.518 914.901C880.339 914.783 880.662 913.86 881.029 912.465C884.463 897.182 888.55 882.055 892.637 866.927C896.957 850.821 902.882 835.649 914.278 823.125C915.074 822.245 915.504 821.452 914.381 819.943C908.401 812.485 905.462 803.544 902.872 794.446C902.406 792.783 901.94 791.121 901.255 789.51C898.871 783.598 898.372 778.169 902.502 772.12C909.404 762.11 915.837 751.748 922.739 741.739C923.78 740.263 923.446 739.494 922.279 738.458C916.553 733.404 912.224 727.408 909.24 720.25C903.924 707.399 906.28 692.445 915.964 682.478C925.648 672.511 940.163 669.039 953.594 677.066C959.957 680.892 965.878 685.129 969.91 691.503C971.508 694.056 972.462 697.145 975.934 698.489C978.458 692.815 982.553 687.93 985.927 682.596C990.828 674.903 997.35 669.527 1006.56 667.757C1011.51 666.831 1016.35 666.778 1020.98 668.467C1032.16 672.475 1039.76 679.94 1041.08 692.185C1041.61 696.759 1042.82 699.942 1046.72 702.803C1052.1 706.705 1052.1 709.634 1048.08 715.194C1050.15 714.479 1052.45 715.097 1054.01 713.192C1055.81 711 1057.68 708.791 1059.47 706.599C1064.59 700.474 1069.5 694.163 1074.8 688.15C1082.41 679.515 1090.86 671.531 1096.49 661.357C1097.95 658.705 1099.32 655.997 1101.08 653.659C1103.55 650.386 1106.45 646.628 1111.01 648.334C1115.31 649.946 1120.39 651.224 1121.86 656.885C1122.41 658.913 1122.89 660.958 1123.3 663.019C1125.39 673.62 1124.66 673.791 1114.01 675.976C1110.34 676.757 1107.69 678.299 1105.34 681.083C1101.49 685.681 1098.01 690.576 1094.61 695.454C1092.92 697.775 1091.23 700.096 1089.63 702.473C1088.08 704.76 1086.05 706.621 1084.78 709.767C1094.93 702.081 1104.94 695.193 1112.43 685.356C1113.3 684.151 1114.37 683.13 1115.44 682.11C1120.48 677.311 1124.05 677.092 1129.38 681.467C1133.03 684.542 1136.37 687.612 1135.73 693.46C1135.42 696.384 1134.66 699.411 1134.89 702.361C1135.07 704.474 1134.48 705.229 1132.78 705.549C1129.19 706.313 1125.69 707.824 1121.78 706.891C1119.82 706.425 1118.04 707.38 1116.62 708.559C1110.95 712.966 1105.49 717.631 1100.48 722.885C1095.42 728.229 1089.96 733.203 1084.52 738.25C1079.51 742.886 1073.83 746.911 1067.49 749.088C1053.22 753.965 1038.54 757.707 1023.75 761.011C1019.79 761.861 1017.41 763.189 1016.5 768.177C1015.04 776.76 1011.98 785.099 1011.1 793.854C1010.66 797.886 1009.83 801.93 1008.48 805.711C1005.29 815.086 999.624 822.494 991.35 828.28C981.034 835.546 973.403 845.726 964.339 854.392C963.526 855.199 958.436 856.158 963.087 858.921C962.511 859.749 963.025 860.63 962.977 861.412C962.545 873.066 962.675 884.819 961.152 896.42C959.447 909.219 957.743 922.018 953.282 934.229C952.161 937.341 952.37 941.528 949.109 943.061C941.155 946.924 934.139 952.493 926.061 956.154C916.72 960.341 908.582 966.712 899.219 971.135C890.406 975.276 881.944 980.259 873.13 984.4C867.102 987.274 860.885 989.344 854.561 991.285C851.764 992.17 850.414 993.641 848.672 995.743C845.726 999.282 842.517 1003.34 838.452 1005.07C834.185 1006.91 831.387 1009.11 828.385 1012.73C820.139 1022.6 812.181 1032.7 803.649 1042.32C799.632 1046.88 796.009 1051.81 791.293 1055.68C785.915 1060.02 784.52 1059.66 781.466 1053.52C778.203 1046.81 773.779 1041.06 768.177 1036.21C760.151 1029.23 760.508 1026.15 769.396 1020.68C781.645 1013.12 793.718 1005.13 804.042 994.937C812.982 986.069 821.973 977.419 833.587 972.084C836.299 970.833 838.511 970.085 841.628 970.896C848.114 972.614 854.183 971.888 859.836 967.408C868.95 960.27 877.686 952.835 886.641 945.349C869.776 948.986 852.612 951.999 835.346 954.574ZM969.389 714.961C969.763 711.947 972.154 709 971.81 706.539C971.533 704.37 967.791 702.858 965.84 700.773C964.407 699.26 963.491 697.317 962.317 695.59C956.192 686.856 948.306 681.46 937.158 681.218C926.702 680.968 914.314 692.877 914.7 705.726C915.013 716.281 919.76 724.721 926.887 732.143C928.804 734.082 929.514 732.837 930.517 731.525C935.803 724.82 941.253 718.154 948.101 712.855C955.852 706.806 963.202 707.937 969.027 716.047C969.183 715.395 969.368 715.198 969.389 714.961Z" fill="#2F8795" fill-opacity="0.5"/>
</g>
<defs>
<linearGradient id="paint0_linear_750_1136" x1="720" y1="0" x2="720" y2="1024" gradientUnits="userSpaceOnUse">
<stop stop-color="#70D6DF"/>
<stop offset="1" stop-color="#2C8492"/>
</linearGradient>
<clipPath id="clip0_750_1136">
<rect width="1440" height="1024" fill="white"/>
</clipPath>
</defs>
</svg>
