<svg width="1441" height="111" viewBox="0 0 1441 111" fill="none" xmlns="http://www.w3.org/2000/svg">
<path d="M295 37L1441 0V109L324 110L295 37Z" fill="#E8D274"/>
<path d="M0 46L295 37C311.8 37 330 35.6 345.3 42.5C352.1 45.6 359.2 50.6 360.1 58C360.9 64.4 356.7 70.5 351.3 74.1C345.9 77.7 339.6 79.2 333.4 81.2C328 82.8 321.7 86.3 322 92C322.2 95.7 325.2 98.5 326.8 101.8C328.4 105.1 327.3 110.5 323.7 110.4L1 109" fill="#2C8492"/>
<path d="M360.2 58C359.3 50.6 352.2 45.5 345.4 42.5C330 35.6 311.8 37 295 37L282.3 37.4C288.8 38 295.1 39.5 301 42.5C307 45.6 313.1 50.6 313.9 58C314.6 64.4 310.9 70.5 306.2 74.1C301.5 77.7 296 79.2 290.6 81.2C285.9 82.9 280.3 86.4 280.6 92.1C280.8 95.8 283.4 98.6 284.8 101.9C286.1 104.8 285.5 109.4 283.1 110.3L323.7 110.5C327.4 110.6 328.4 105.2 326.8 101.9C325.2 98.6 322.2 95.8 322 92.1C321.7 86.4 328.1 82.9 333.5 81.2C339.6 79.3 346 77.7 351.4 74.1C356.7 70.5 361 64.4 360.2 58Z" fill="white"/>
<path d="M689.5 99C702.479 99 713 95.4183 713 91C713 86.5817 702.479 83 689.5 83C676.521 83 666 86.5817 666 91C666 95.4183 676.521 99 689.5 99Z" fill="#D8A04F"/>
<path d="M661.6 59.2C661.7 59.2 661.7 59.1 661.8 59.1C661.7 59 661.7 59 661.6 58.9C660.8 58.2 660 57.5 659.3 56.8C658.9 56.4 658.5 55.9 658.7 55.3C659.6 56.2 660.3 57.4 661.8 57.7C662.3 57 662.8 56.4 663 55.6C663.3 55.6 663.6 55.7 663.8 55.7C663.6 56.1 663.5 56.4 663.3 56.8C662.3 57.6 662.5 58.8 662.3 60C663.5 61.2 663.5 63.4 665.6 64.1C666 63.1 666.4 62.3 666.8 61.4C667.8 60.1 668.1 58.5 668.9 57.1C669.1 56.7 669.1 56 669.9 56.3C669.6 57.6 668.9 58.7 668.4 59.9C667.7 61.7 666.5 63.4 667.5 65.5C667.9 66.2 667.9 67.2 668.9 67.3C670 67.4 670.8 67 671.3 66C672.3 65.9 672.6 65.1 672.9 64.4C673.8 62.4 674.8 60.5 675.8 58.6C675.9 58.5 676 58.4 676.1 58.4C677 58.8 676.3 59.5 676.3 60.1C676.1 60.2 676 60.3 675.9 60.4C673.8 63.5 672.4 67 672.3 70.8C672.3 72.7 672.4 74.7 674.6 75.7C676.7 76.6 679.3 76.1 681.2 74.1C682.1 73.2 682.9 72.3 683.8 71.4C683.9 73.1 683 74.3 682.6 75.6C682.2 77 681.2 78.4 681.1 79.8C680.9 85 682.4 89.6 686 93.5C686.3 93.8 686.6 94.1 686.5 94.6C685.7 94.5 685.3 94 684.7 93.6C683.4 92.7 682.5 91.4 681.5 90.2C679.4 87.9 678 85.3 677.9 82.1C677.9 81.3 678.2 80.4 677.8 79.6C677.6 79.6 677.4 79.6 677.2 79.6C672.9 79.9 669.7 76.5 670.2 72.2C670.3 71.3 670.7 70.4 670.4 69.2C666.8 70.4 665.7 67.9 664.6 65.4C661.9 64.6 660.9 62.6 660.5 60C660.5 60.1 660.7 59.4 661.6 59.2Z" fill="#EBBC78"/>
<path d="M666.4 54.6C667.5 54.5 668.3 55.1 669.1 55.8C671.9 55 674.2 55.6 675.7 58.3C675.7 58.5 675.7 58.6 675.7 58.8C674.7 60.7 673.7 62.6 672.8 64.6C672.5 65.3 672.2 66.1 671.2 66.2C669.4 64.7 669.1 62.7 669.7 60.5C669.9 59.7 670 58.8 670.1 58C670.2 57.4 670.2 56.9 669.8 56.4C669 56.1 669 56.9 668.8 57.2C668 58.6 667.7 60.2 666.7 61.5C666.5 61.5 666.3 61.4 666.1 61.4C663.7 61 663.2 60.3 663.4 57.9C663.4 57.6 663.5 57.2 663.2 57C663.4 56.6 663.5 56.3 663.7 55.9C664.4 56 664.5 55.3 664.9 55C665.4 54.8 666 54.9 666.4 54.6Z" fill="#F5EEDC"/>
<path d="M659 54.7C659.1 54.1 659.4 53.9 660 54C660.9 54.2 662 54.1 662.4 55.2C662 56.5 661.1 56.2 660.1 55.9C659.8 55.5 659.5 55 659 54.7Z" fill="#F5EEDC"/>
<path d="M659 54.7C659.5 55 659.8 55.5 660.1 56C661 56.3 661.9 56.5 662.4 55.3C662.6 55.3 662.8 55.4 662.9 55.7C662.7 56.5 662.2 57.1 661.7 57.8C660.2 57.5 659.5 56.3 658.6 55.4C658.7 55.1 658.8 54.9 659 54.7Z" fill="#F6D6C1"/>
<path d="M661.6 58.9C661.7 59 661.7 59 661.8 59.1C661.7 59.1 661.7 59.2 661.6 59.2C661.6 59.1 661.6 59 661.6 58.9Z" fill="#F6D6C1"/>
<path d="M686.1 61.9C687.4 61.1 688.8 61 690.2 61.1C694.8 61.3 698.5 63.2 701.8 66.3C703.6 68 705.2 69.9 706.3 72.3C706.4 72.5 706.6 72.6 706.8 72.8C707 73.6 707.3 74.4 707.7 75.2C707.7 75.4 707.7 75.7 707.9 75.8C708.3 77.5 708.6 79.3 709.3 81C710.4 83.6 709.9 86.2 709.4 88.8C709.3 89.3 709.1 89.7 709 90.2C708.6 92.2 707.5 93.7 705.6 94.6C704.8 94.9 704 95.2 703.3 95.8C703 95.9 702.6 95.7 702.4 96.1C701.4 96 700.5 96.2 699.5 96.5C698 97 696.4 97.4 694.8 97.1C694.7 96.8 694.5 96.6 694.2 96.4C692.1 95.4 690.6 93.7 689.2 92C687.2 89.6 686.1 86.7 685.4 83.6C684.6 79.9 685.4 76.5 686.1 73C686.9 69.1 687.8 65.5 686.1 61.9Z" fill="#F5EEDC"/>
<path d="M694.8 96.8C691.9 96.6 689 96.2 686.4 94.7C686.5 94.2 686.2 93.9 685.9 93.6C682.3 89.8 680.7 85.1 681 79.9C681.1 78.5 682 77.1 682.5 75.7C682.9 74.4 683.9 73.2 683.7 71.5C682.8 72.5 681.9 73.4 681.1 74.2C679.2 76.1 676.6 76.7 674.5 75.8C672.3 74.8 672.1 72.8 672.2 70.9C672.3 67.1 673.6 63.6 675.8 60.5C675.9 60.4 676.1 60.3 676.2 60.2C676.8 60.8 676.4 61.5 676.3 62.1C675.9 64.4 675.5 66.8 676.5 69.1C677.8 72.3 678.4 73.4 681 73.1C682.9 69.8 684 66.2 683.9 62.3C683.9 61.5 684 60.7 684.1 59.9C684.7 60.1 684.8 60.7 685.1 61.2C685.4 61.6 685.5 62 686.1 62C687.8 65.6 686.8 69.2 686.1 72.8C685.4 76.3 684.5 79.7 685.4 83.4C686.1 86.5 687.2 89.4 689.2 91.8C690.6 93.5 692.1 95.2 694.2 96.2C694.5 96.2 694.7 96.4 694.8 96.8Z" fill="#F6D6C1"/>
<path d="M684.1 59.9C684 60.7 683.9 61.5 683.9 62.3C684 66.2 682.9 69.8 681 73.1C678.4 73.4 677.8 72.3 676.5 69.1C675.5 66.8 676 64.5 676.3 62.1C676.4 61.5 676.8 60.8 676.2 60.2C676.2 59.6 676.9 59 676 58.5C676 58.4 676 58.3 676.1 58.2C678.9 56.3 682.7 57.5 684.1 59.9Z" fill="#F5EEDC"/>
<path d="M669.8 56.3C670.2 56.8 670.2 57.3 670.1 57.9C670 58.7 669.9 59.6 669.7 60.4C669.1 62.6 669.4 64.5 671.2 66.1C670.7 67.1 669.8 67.5 668.8 67.4C667.8 67.3 667.8 66.3 667.4 65.6C666.3 63.5 667.5 61.8 668.3 60C668.7 58.8 669.4 57.6 669.8 56.3Z" fill="#F6D6C1"/>
<path d="M663.3 56.8C663.6 57.1 663.5 57.4 663.5 57.7C663.3 60.1 663.8 60.9 666.2 61.2C666.4 61.2 666.6 61.3 666.8 61.3C666.4 62.2 666.1 63 665.6 64C663.5 63.3 663.5 61.2 662.3 59.9C662.5 58.9 662.2 57.7 663.3 56.8Z" fill="#F6D6C1"/>
<path d="M676.1 58.2C676.1 58.3 676.1 58.4 676 58.5C675.9 58.6 675.8 58.7 675.7 58.7C675.7 58.5 675.7 58.4 675.7 58.2C675.8 58.2 675.9 58.2 676.1 58.2Z" fill="#F6D6C1"/>
<path d="M440.5 47.8C440.5 47.8 434 50.3 442.3 52.2C450.6 54.1 455.3 58.7 455.3 58.7C455.3 58.7 451.7 68 452.9 69.9C454.1 71.8 455.3 74.6 461.2 71.8C467.1 69 477.8 60.6 482.5 62.5C487.2 64.3 440.5 47.8 440.5 47.8Z" fill="#D8A04F"/>
<path d="M445.9 45.7C446.1 45.7 446.3 45.7 446.5 45.7C450.1 46.3 453.7 46.1 457.2 45.9C459.7 45.7 461.9 45.1 463.3 43.3C465.2 40.9 466.1 38.2 465.6 35.4C465.5 34.6 465.4 33.6 464.3 33C464.3 32.9 464.2 32.7 464.2 32.6C464.3 31.3 464.1 30 464.5 28.7C464.8 27.8 465.4 27.1 466.6 27C467.9 26.9 468.6 27.5 469.2 28.3C469.7 29 470.2 29.8 470.4 30.7C470.2 31.1 470.3 31.5 470.4 32C471 35.4 472.3 38.6 473.2 41.9C474.1 45.2 475.1 45.6 479.2 44.6C484.4 43.3 489.4 41.6 494.5 40.2C494.4 40.5 494.3 40.8 494.7 41.2C495 41.2 495.3 41.2 495.6 41.3C494.3 42.3 492.8 43.2 491.3 44.1C488.5 45.8 485.3 47 482.6 48.6C479.5 50.4 479.2 53.3 482.1 55.3C484.2 56.7 486.4 58.1 488.5 59.6C489.1 60.8 490.3 61.6 491.2 62.6C492.3 63.7 493 65 494.4 65.9C494.5 66.8 493.6 67.1 492.7 67.2C492.2 67 491.7 66.9 491.2 66.7C491.1 66.6 491 66.6 490.8 66.5C489 64.9 486.8 63.6 484.9 62C482.6 60.1 479.7 58.9 476.5 58.3C474.5 57.9 472.4 57.8 470.7 58.9C466.7 61.5 464.2 64.9 462.5 68.7C462.3 68.8 462.2 69 462.2 69.2C461.4 69.9 460.2 70.3 459.9 71.3C459.4 71.8 458.9 72.1 458.1 72.3C456.2 71.9 455.9 71.1 456.7 69.4C458.5 65.7 459.5 61.9 459.2 58C459 55.4 458 53.4 454.4 52.5C451.1 51.7 447.7 50.9 444.4 49.9C443.7 49.5 442.8 49.5 442 49.3C441 49 440.2 48.5 440.4 47.5C440.6 46.5 441.3 46.1 442.5 46C443.5 45.9 444.6 45.9 445.6 45.9C445.7 45.7 445.8 45.7 445.9 45.7ZM469.5 50.9C468.2 50.9 467.4 51.6 467.4 52.5C467.4 53.4 468.4 54.2 469.6 54.2C470.7 54.2 471.7 53.3 471.7 52.5C471.6 51.5 470.6 50.8 469.5 50.9ZM478.6 47.6C478.6 46.7 477.7 45.9 476.6 45.9C475.5 45.9 474.5 46.7 474.5 47.5C474.5 48.3 475.6 49.1 476.6 49.1C477.6 49.2 478.6 48.4 478.6 47.6ZM468.8 45.8C468.8 46.6 469.6 47.2 470.6 47.2C471.5 47.2 472.4 46.5 472.4 45.8C472.4 45 471.5 44.3 470.5 44.3C469.5 44.4 468.8 45 468.8 45.8ZM469.6 43.2C470.6 43.2 471.2 42.8 471.2 42C471.2 41.2 470.6 40.7 469.7 40.7C468.8 40.7 468.2 41.1 468.2 41.9C468.1 42.6 468.6 43.1 469.6 43.2ZM454.7 47.3C454 46.7 453.2 46.4 452.3 47.1C451.6 47.6 451.6 48.2 452.2 48.8C453 49.5 453.8 49.3 454.6 48.7C454.9 48.3 454.9 47.8 454.7 47.3ZM469.3 57.4C470.1 56.8 470.2 56.2 469.5 55.5C469 55.1 468.4 55 467.8 55.3C467 55.6 466.8 56.2 467.1 56.8C467.5 57.6 468.3 57.6 469.3 57.4ZM482.8 46.1C482.7 45.4 482.3 44.9 481.4 44.9C480.6 44.9 480 45.3 479.9 46C479.9 46.7 480.3 47.2 481.3 47.2C482.1 47.2 482.6 46.8 482.8 46.1ZM461.7 49.7C462.5 49.4 463.3 49.1 463 48.2C462.8 47.7 462.3 47.3 461.6 47.3C460.9 47.3 460.3 47.6 460.2 48.2C460.1 49 460.7 49.5 461.7 49.7ZM490.8 63.1C490 63.3 489.5 63.6 489.6 64.2C489.7 64.6 490.1 64.9 490.6 64.9C491.2 64.9 491.6 64.7 491.7 64.3C492.1 63.7 491.6 63.3 490.8 63.1ZM488.2 44.3C488.9 44.2 489.3 43.9 489.3 43.4C489.3 42.9 488.9 42.7 488.3 42.6C486.9 43.2 486.9 43.6 488.2 44.3ZM463.7 62.9C464.4 63.1 465.1 63.1 465.4 62.6C465.6 62.3 465.5 61.9 465.1 61.7C464.7 61.4 464.3 61.4 463.9 61.6C463.3 61.9 463.3 62.4 463.7 62.9ZM462.6 64.8C461.8 64.7 461.2 64.8 461.1 65.5C461.1 66.1 461.7 66.3 462.4 66.3C463.3 65.8 463.3 65.3 462.6 64.8ZM478.7 54.8C478.2 54.6 477.8 54.6 477.3 54.9C476.9 55.6 477.3 56 478.2 56.1C479 55.7 479 55.3 478.7 54.8ZM441.6 47C441.5 47.6 441.8 47.9 442.4 48C443.1 47.9 443.5 47.6 443.1 47C442.7 46.5 442.2 46.6 441.6 47ZM459.4 67.9C458.9 68.3 458.8 68.7 459.3 69C459.8 69.3 460.2 69.1 460.4 68.6C460.4 68.2 460.1 67.9 459.4 67.9ZM487.7 61.7C487.4 62.1 487.4 62.4 487.7 62.7C488.3 62.9 488.7 62.8 489 62.3C488.9 61.8 488.5 61.6 487.7 61.7ZM467.8 29.2C466.8 29 466.4 29.3 466.7 30C467.5 30.2 468 30 467.8 29.2ZM481.8 58C481.8 57.4 481.6 57.2 480.8 57.3C480.7 57.9 480.8 58.2 481.8 58ZM467.6 32.6C468.1 32.6 468.5 32.4 468.3 32C468.2 31.7 467.9 31.6 467.5 31.8C467.2 32.1 467.3 32.3 467.6 32.6ZM444.8 47.3C445.1 47.8 445.4 48 445.9 47.6C445.8 47 445.5 46.8 444.8 47.3Z" fill="#E95119"/>
<path d="M488.4 59.3C486.3 57.8 484.1 56.5 482 55C479.1 53 479.4 50.2 482.5 48.3C485.3 46.6 488.5 45.5 491.2 43.8C492.7 42.9 494.2 42 495.5 41C496.2 40.6 497 40.3 497.6 39.8C496.6 39 495.7 39.4 494.9 39.8C494.8 39.8 494.6 39.9 494.5 39.9C489.4 41.3 484.4 43 479.2 44.3C475.1 45.3 474.1 45 473.2 41.6C472.3 38.3 471 35.1 470.4 31.7C470.3 31.3 470.2 30.9 470.4 30.4C471.6 31.8 472.1 33.5 472.9 35.1C473.9 37.1 475.5 38.4 478.1 39.1C480.8 39.9 483.6 39.9 486.4 39.5C489.5 39.1 492.4 38.2 495.2 37.1C496.7 36.5 497.8 36.6 498.6 37.5C499.4 38.4 499.1 39 497.8 40.1C494.8 42.6 491.3 44.8 488.2 47.2C487.8 47.5 487.4 47.7 487.2 48.1C486 48.9 485.5 49.8 485.4 51C485.2 53.6 486.1 55.9 487.9 58C488.2 58.6 488.5 58.9 488.4 59.3Z" fill="#EF8965"/>
<path d="M486.6 64.5C486.5 64 485.9 63.8 485.5 63.6C482.4 62 479 60.9 475.1 61C472 61.1 469.3 62.1 467.4 64.1C466.2 65.4 464.9 66.6 463.6 67.8C463.3 68.1 463 68.4 462.4 68.4C464 64.6 466.5 61.2 470.6 58.6C472.3 57.5 474.4 57.7 476.4 58C479.6 58.6 482.5 59.8 484.8 61.7C486.7 63.3 488.9 64.6 490.7 66.2C489.6 66.3 489 65.7 488.4 65.2C487.9 64.9 487.4 64.6 486.6 64.5Z" fill="#EF8965"/>
<path d="M494.3 65.7C492.9 64.8 492.2 63.5 491.1 62.4C490.2 61.4 489 60.6 488.4 59.4C491.1 61 494.1 62.5 494.3 65.7Z" fill="#EF8965"/>
<path d="M490.8 66.3C490.9 66.4 491 66.4 491.2 66.5C491 66.5 490.9 66.5 490.8 66.3Z" fill="#EF8965"/>
<path d="M464.4 33C465.5 33.6 465.6 34.5 465.7 35.4C466.1 38.2 465.3 40.9 463.4 43.3C462 45.1 459.8 45.7 457.3 45.9C453.7 46.1 450.1 46.3 446.6 45.7C448.9 45.1 451.3 45.1 453.6 44.6C455.9 44.1 458.3 43.8 460.3 42.6C462.8 41 463.7 38.8 464.1 36.5C464.2 35.3 464.3 34.2 464.4 33Z" fill="#EF8965"/>
<path d="M445.9 45.7C445.8 45.7 445.7 45.7 445.6 45.7C445.7 45.6 445.8 45.6 445.9 45.7Z" fill="#EF8965"/>
<path d="M469.5 50.9C470.7 50.9 471.6 51.6 471.6 52.5C471.6 53.3 470.6 54.2 469.5 54.2C468.3 54.2 467.3 53.4 467.3 52.5C467.4 51.5 468.2 50.9 469.5 50.9Z" fill="#EBBC78"/>
<path d="M478.6 47.6C478.6 48.4 477.6 49.2 476.6 49.2C475.5 49.2 474.5 48.4 474.5 47.6C474.5 46.8 475.5 46 476.6 46C477.7 46 478.6 46.7 478.6 47.6Z" fill="#EBBC78"/>
<path d="M468.8 45.8C468.8 45 469.5 44.4 470.5 44.3C471.5 44.3 472.4 45 472.4 45.8C472.4 46.5 471.5 47.2 470.6 47.2C469.5 47.2 468.8 46.6 468.8 45.8Z" fill="#EBBC78"/>
<path d="M469.6 43.2C468.6 43.1 468.1 42.7 468.2 41.9C468.2 41.1 468.8 40.7 469.7 40.7C470.6 40.7 471.3 41.2 471.2 42C471.2 42.8 470.6 43.1 469.6 43.2Z" fill="#EBBC78"/>
<path d="M454.7 47.3C454.9 47.8 454.9 48.2 454.6 48.7C453.8 49.3 452.9 49.5 452.2 48.8C451.6 48.3 451.6 47.7 452.3 47.1C453.3 46.4 454 46.8 454.7 47.3Z" fill="#EBBC78"/>
<path d="M469.3 57.4C468.3 57.6 467.5 57.6 467.1 56.8C466.8 56.2 467 55.6 467.8 55.3C468.4 55 469.1 55.1 469.5 55.5C470.2 56.1 470.1 56.8 469.3 57.4Z" fill="#EBBC78"/>
<path d="M482.8 46.1C482.7 46.8 482.2 47.2 481.3 47.1C480.3 47.1 479.9 46.6 479.9 45.9C479.9 45.2 480.5 44.8 481.4 44.8C482.2 44.9 482.7 45.4 482.8 46.1Z" fill="#EBBC78"/>
<path d="M461.7 49.7C460.6 49.4 460 49 460.2 48.2C460.3 47.6 460.8 47.3 461.6 47.3C462.3 47.3 462.8 47.6 463 48.2C463.3 49.1 462.6 49.4 461.7 49.7Z" fill="#EBBC78"/>
<path d="M490.8 63.1C491.6 63.3 492.1 63.7 491.8 64.3C491.6 64.7 491.2 64.9 490.7 64.9C490.2 64.9 489.8 64.6 489.7 64.2C489.5 63.5 490 63.2 490.8 63.1Z" fill="#EBBC78"/>
<path d="M488.2 44.3C486.8 43.6 486.8 43.2 488.2 42.5C488.8 42.6 489.2 42.8 489.2 43.3C489.3 43.9 488.9 44.2 488.2 44.3Z" fill="#EBBC78"/>
<path d="M463.7 62.9C463.3 62.3 463.3 61.9 463.9 61.5C464.3 61.3 464.7 61.3 465.1 61.6C465.5 61.9 465.6 62.2 465.4 62.5C465.1 63.2 464.5 63.2 463.7 62.9Z" fill="#EBBC78"/>
<path d="M462.6 64.8C463.3 65.4 463.3 65.8 462.4 66.3C461.7 66.3 461.1 66.1 461.1 65.5C461.1 64.7 461.8 64.6 462.6 64.8Z" fill="#EBBC78"/>
<path d="M478.7 54.8C479 55.3 479 55.7 478.2 56C477.3 55.9 476.9 55.6 477.3 54.8C477.8 54.6 478.2 54.6 478.7 54.8Z" fill="#EBBC78"/>
<path d="M441.6 47C442.2 46.6 442.7 46.5 443.1 47C443.5 47.6 443.1 47.9 442.4 48C441.8 47.9 441.5 47.6 441.6 47Z" fill="#EBBC78"/>
<path d="M459.4 67.9C460.1 67.9 460.4 68.2 460.4 68.6C460.2 69.1 459.8 69.3 459.3 69C458.8 68.7 458.9 68.3 459.4 67.9Z" fill="#EBBC78"/>
<path d="M487.7 61.7C488.4 61.6 488.8 61.7 488.9 62.3C488.7 62.8 488.3 62.9 487.6 62.7C487.4 62.4 487.4 62.1 487.7 61.7Z" fill="#EBBC78"/>
<path d="M494.4 40C494.5 40 494.7 39.9 494.8 39.9C495.8 40 495.4 40.6 495.5 41.1C495.2 41.1 494.9 41.1 494.6 41C494.2 40.7 494.3 40.4 494.4 40Z" fill="#EBBC78"/>
<path d="M467.8 29.2C468 30 467.6 30.2 466.7 30C466.4 29.3 466.7 29 467.8 29.2Z" fill="#EBBC78"/>
<path d="M480.8 57.3C480.7 57.9 480.8 58.2 481.8 58C481.8 57.4 481.5 57.2 480.8 57.3Z" fill="#DFAC62"/>
<path d="M467.6 32.6C467.3 32.3 467.2 32 467.5 31.8C467.9 31.6 468.2 31.7 468.3 32C468.5 32.5 468.1 32.6 467.6 32.6Z" fill="#EBBC78"/>
<path d="M445.9 47.6C445.8 47 445.5 46.8 444.8 47.3C445.1 47.8 445.4 48 445.9 47.6Z" fill="#DFAC62"/>
<path d="M462.6 68.4C462.6 68.6 462.5 68.8 462.3 68.9C462.3 68.7 462.3 68.6 462.6 68.4Z" fill="#EF8965"/>
<path d="M495.5 41.1C495.5 40.6 495.8 40.1 494.8 39.9C495.7 39.5 496.5 39.1 497.5 39.9C497 40.4 496.2 40.7 495.5 41.1Z" fill="#E95119"/>
</svg>
