<svg width="198" height="239" viewBox="0 0 198 239" fill="none" xmlns="http://www.w3.org/2000/svg">
<path d="M192.664 178.66L88.4312 239L88.2233 170.05L88.154 150.677V150.469L88.0847 118.945L99.0346 112.626L112.687 104.71L174.298 69.0892L177.763 67.0755L192.317 58.6737V60.8957V65.4785L192.456 102.905V103.946L192.664 178.66Z" fill="#F9C385"/>
<path d="M88.4312 239L32.5726 206.504L0.346517 187.687L0 67.7005L88.0847 118.945L88.154 150.469L88.2233 170.05L88.4312 239Z" fill="#D9AA74"/>
<path d="M88.0847 118.945L0 67.7005L104.232 7.42969L192.317 58.6737L88.0847 118.945Z" fill="#D1A370"/>
<path d="M192.317 65.4785V60.8957V19.3727L163.625 55.4102L129.251 50.6191L112.618 80.7545L88.0154 76.8661V122.208L88.0847 150.538V150.677C98.4109 142.483 105.965 131.026 109.846 118.458L145.814 92.6976L179.773 82.9765C179.773 82.9765 179.773 82.9765 179.773 83.0459C181.506 86.726 183.516 90.3367 185.664 93.8085C187.674 97.0026 189.891 100.058 192.317 102.974V65.4785Z" fill="#BB9264"/>
<path d="M163.14 0L134.449 36.0375L100.074 31.1769L83.4414 61.3123L58.9079 57.4239V102.002L163.14 46.939V0Z" fill="#BB9264"/>
<path d="M58.9079 57.4239L88.0847 76.7966L112.618 80.6851L83.4414 61.3123L58.9079 57.4239Z" fill="#C5B099"/>
<path d="M88.0847 76.7966L58.9079 57.4239V102.002L0 67.7005L0.346517 187.687L32.5726 206.434C37.8397 202.893 42.4137 198.449 43.7998 192.408C45.8096 183.798 38.5327 180.812 45.671 173.73C47.958 171.438 51.4232 169.98 54.3339 168.73C60.5019 166.022 81.986 153.524 88.0847 150.677V76.7966Z" fill="#9E7B55"/>
<path d="M100.074 31.1769L129.251 50.5497L112.618 80.6851L83.4414 61.3123L100.074 31.1769Z" fill="#9E7B55"/>
<path d="M134.449 36.0375L163.625 55.4102L129.251 50.5497L100.074 31.1769L134.449 36.0375Z" fill="#C5B099"/>
<path d="M163.14 0L192.317 19.3727L163.625 55.4102L134.449 36.0375L163.14 0Z" fill="#9E7B55"/>
<path d="M54.4725 195.88L37.0081 205.948L36.9387 178.799L54.4032 168.73V175.535L54.4725 190.256V195.88Z" fill="#F9C385"/>
<path d="M54.4725 190.256L44.9086 195.811L44.8393 181.021L54.4032 175.535L54.4725 190.256Z" fill="#522C21"/>
<path d="M37.0081 205.948L32.6419 203.379L32.5726 176.23L36.9387 178.799L37.0081 205.948Z" fill="#D9AA74"/>
<path d="M36.9387 178.799L32.5726 176.23L49.9678 166.161L54.4032 168.73L36.9387 178.799Z" fill="#FBDBB6"/>
<path d="M160.299 126.374C159.467 127.277 158.428 128.388 157.735 128.11C157.18 127.902 155.933 126.166 157.665 123.111C160.507 118.181 171.041 111.168 174.922 109.848C178.872 108.529 179.635 110.404 181.367 113.112C175.199 114.084 168.754 116.861 160.299 126.374Z" fill="#522C21"/>
<path d="M120.034 151.927C120.865 151.927 121.835 151.927 122.598 150.885C123.152 150.052 124.538 146.858 122.806 145.678C120.103 143.872 109.638 148.455 105.688 151.51C101.737 154.565 100.837 157.412 99.0346 162.064C105.272 156.093 111.717 151.718 120.034 151.927Z" fill="#522C21"/>
<path d="M120.297 163.834C122.035 160.855 122.052 157.624 120.333 156.617C118.615 155.611 115.813 157.21 114.074 160.19C112.336 163.169 112.319 166.401 114.038 167.407C115.756 168.414 118.558 166.814 120.297 163.834Z" fill="#3A1C14"/>
<path d="M174.09 129.152C174.09 131.929 172.081 135.401 169.655 136.79C167.229 138.178 165.219 137.067 165.219 134.29C165.219 131.512 167.229 128.041 169.655 126.652C172.081 125.263 174.09 126.305 174.09 129.152Z" fill="#3A1C14"/>
<path d="M149.21 186.576L146.438 188.173C140.825 191.436 136.32 187.964 136.32 180.535L159.329 167.203C159.329 174.632 154.824 183.312 149.21 186.576Z" fill="white"/>
<path d="M104.163 190.603C101.807 190.603 99.5891 190.047 97.6486 188.936C93.0052 186.228 90.441 180.743 90.441 173.452C90.441 159.079 100.559 141.581 113.034 134.359C119.41 130.679 125.509 130.124 130.221 132.832C134.865 135.54 137.429 141.025 137.429 148.316C137.429 162.689 127.31 180.187 114.836 187.409C111.024 189.561 107.42 190.603 104.163 190.603ZM123.637 134.568C120.935 134.568 117.954 135.47 114.767 137.345C103.262 144.011 93.8369 160.19 93.8369 173.452C93.8369 179.493 95.7774 183.868 99.3119 185.951C102.846 188.034 107.767 187.478 113.034 184.423C124.538 177.757 133.964 161.578 133.964 148.316C133.964 142.275 132.023 137.901 128.489 135.818C127.033 134.984 125.439 134.568 123.637 134.568Z" fill="#522C21"/>
<path d="M164.734 158.662C162.378 158.662 160.16 158.107 158.22 156.996C153.576 154.288 151.012 148.802 151.012 141.511C151.012 127.138 161.131 109.64 173.605 102.419C179.981 98.7385 186.08 98.183 190.792 100.891C195.436 103.599 198 109.085 198 116.375C198 130.749 187.882 148.247 175.407 155.468C171.665 157.551 168.061 158.662 164.734 158.662ZM184.278 102.558C181.575 102.558 178.595 103.46 175.407 105.335C163.903 112.001 154.547 128.18 154.547 141.442C154.547 147.483 156.487 151.857 160.022 153.94C163.556 156.024 168.477 155.468 173.744 152.413C185.248 145.747 194.604 129.568 194.604 116.306C194.604 110.265 192.664 105.89 189.129 103.807C187.674 102.974 186.01 102.558 184.278 102.558Z" fill="#522C21"/>
<path d="M94.3913 180.326L88.2233 183.729V179.979L92.6587 177.34L94.3913 180.326Z" fill="#522C21"/>
<path d="M150.998 141.48L133.653 151.513L135.697 155.061L153.042 145.027L150.998 141.48Z" fill="#522C21"/>
<path d="M88.2233 179.979V183.729L48.9282 166.3C48.0273 165.883 47.6808 164.911 48.0273 164.009C48.4431 163.106 49.4134 162.759 50.3143 163.106L88.2233 179.979Z" fill="#3E2119"/>
</svg>
