<svg width="199" height="283" viewBox="0 0 199 283" fill="none" xmlns="http://www.w3.org/2000/svg">
<path d="M198.238 128.334V131.729L194.846 129.789L160.502 109.902V106.506L194.846 126.394L198.238 128.334Z" fill="#F36456"/>
<path d="M156.14 223.268L189.652 241.215V166.238L156.14 146.974V223.268Z" fill="#BC7834"/>
<path d="M189.652 181.483L87.0365 240.799L86.8288 173.029L86.7596 156.883V153.765V142.47L86.6903 122.79L171.58 73.7297L175.042 71.7894L185.775 65.5529L189.306 63.474V65.6915L189.375 70.1956V88.4202L189.445 107.06V108.031L189.514 125.978L189.652 181.483Z" fill="#F9C385"/>
<path d="M87.0365 240.799L33.5129 209.686L32.0588 208.855L0.346207 190.422L0 72.3438L33.5129 91.8156L86.6903 122.79L86.7596 153.765L86.8288 173.029L87.0365 240.799Z" fill="#D9AA74"/>
<path d="M86.6903 122.79L0 72.3438L102.616 13.0967L189.306 63.474L86.6903 122.79Z" fill="#FCB36A"/>
<path d="M189.375 88.4202L189.306 70.1956V65.6915V63.474L185.775 65.4836L174.973 71.7201L171.58 73.7297L86.6903 122.79L86.7596 142.47V153.765V156.814C88.0059 155.913 89.2523 155.012 90.4294 154.042C99.5692 147.044 108.017 139.075 115.495 130.274C122.211 122.375 128.166 113.782 133.221 104.704C133.498 104.912 133.844 105.19 134.121 105.397C150.531 117.524 189.375 107.961 189.375 107.961V88.4202Z" fill="#FBA045"/>
<path d="M142.014 27.3715L142.084 55.228L86.3441 87.45L86.2749 59.5935L142.014 27.3715Z" fill="#FBA045"/>
<path d="M86.3441 87.45L39.2599 60.0093L39.1214 32.2221L86.2749 59.5935L86.3441 87.45Z" fill="#BC7834"/>
<path d="M86.2749 59.5935L39.1214 32.2221L94.9301 0L142.014 27.3715L86.2749 59.5935Z" fill="#FCB36A"/>
<path d="M60.5863 107.546L33.5129 91.8156V91.6077L0 72.3438L0.346207 190.422L32.0588 208.855L33.5129 209.686V187.373L53.5237 172.683V265.122L87.0365 283V122.79L60.5863 107.546Z" fill="#BC7834"/>
<path d="M158.286 129.928C157.455 130.829 156.416 131.937 155.724 131.66C155.17 131.452 153.924 129.72 155.655 126.671C158.494 121.751 169.018 114.752 172.896 113.436C176.843 112.119 177.604 113.99 179.335 116.692C173.173 117.663 166.733 120.434 158.286 129.928Z" fill="#522C21"/>
<path d="M117.987 155.428C118.818 155.428 119.788 155.428 120.549 154.389C121.103 153.557 122.488 150.37 120.757 149.192C118.057 147.39 107.601 151.964 103.654 155.013C99.7077 158.062 98.8076 160.903 97.0073 165.545C103.308 159.586 109.748 155.22 117.987 155.428Z" fill="#522C21"/>
<path d="M118.302 167.314C120.039 164.341 120.055 161.116 118.339 160.112C116.622 159.107 113.822 160.703 112.085 163.677C110.348 166.65 110.332 169.875 112.048 170.88C113.765 171.884 116.565 170.288 118.302 167.314Z" fill="#3A1C14"/>
<path d="M171.996 132.7C171.996 135.471 169.988 138.936 167.564 140.322C165.141 141.708 163.133 140.599 163.133 137.827C163.133 135.056 165.141 131.591 167.564 130.205C169.988 128.819 171.996 129.858 171.996 132.7Z" fill="#3A1C14"/>
<path d="M53.5237 171.713V198.46L36.421 208.37L36.3518 181.622L53.5237 171.713Z" fill="#F9C385"/>
<path d="M53.5237 178.434V192.986L44.2453 198.391L44.1761 183.839L53.5237 178.434Z" fill="#522C21"/>
<path d="M36.421 208.37L32.128 205.806L32.0588 179.127L36.3518 181.622L36.421 208.37Z" fill="#D9AA74"/>
<path d="M36.3518 181.622L32.0588 179.127L49.2307 169.218L53.5237 171.713L36.3518 181.622Z" fill="#FBDBB6"/>
<path d="M146.03 194.788L143.261 196.381C137.652 199.638 133.151 196.174 133.151 188.759L156.14 175.454C156.14 182.869 151.639 191.531 146.03 194.788Z" fill="white"/>
<path d="M83.8514 185.641V189.036L80.4586 187.027L46.0456 167.208V163.813L80.4586 183.631L83.8514 185.641Z" fill="#F36456"/>
<path d="M144.992 134.432V142.609C144.992 146.974 145.684 150.855 147.069 154.042L132.805 162.288C133.913 158.131 134.467 153.973 134.467 149.954V139.768L80.3894 171.02V211.072L111.894 192.847C120.272 187.997 127.612 177.603 131.49 166.308L148.315 156.606C149.631 158.754 151.293 160.417 153.231 161.526C155.17 162.635 157.317 163.189 159.671 163.189C162.648 163.189 165.903 162.219 169.157 160.348L199 143.094V103.041L144.992 134.432ZM110.302 190.006L83.8514 205.251V173.029L131.143 145.727V149.954C131.143 154.805 130.243 159.794 128.651 164.714C128.166 166.169 127.612 167.624 127.058 169.01C123.181 178.088 117.087 186.057 110.302 190.006ZM195.676 141.292L167.564 157.576C162.925 160.279 158.494 160.695 155.101 158.754C153.647 157.923 152.4 156.676 151.362 155.082C150.877 154.25 150.392 153.419 150.046 152.449C149.008 149.746 148.384 146.42 148.384 142.678V136.441L195.676 109.139V141.292Z" fill="#F36456"/>
</svg>
