<svg width="136" height="294" viewBox="0 0 136 294" fill="none" xmlns="http://www.w3.org/2000/svg">
<path d="M135.479 87.4572V89.7227L133.161 88.4012L109.689 74.8554V72.59L133.161 86.0885L135.479 87.4572Z" fill="#F36456"/>
<path d="M107.182 121.062V178.266L92.5122 169.817V112.661L107.182 121.062Z" fill="#D9AA74"/>
<path d="M121.851 112.661V169.817L107.182 178.266V121.062L121.851 112.661Z" fill="#F9C385"/>
<path d="M107.182 121.062V162.69L92.5122 154.289V112.661L107.182 121.062Z" fill="#893831"/>
<path d="M121.851 112.661V154.289L107.182 162.69V121.062L121.851 112.661Z" fill="#B64B41"/>
<path d="M107.182 121.062L92.5122 112.661L107.182 104.212L121.851 112.661L107.182 121.062Z" fill="#F58378"/>
<path d="M123.886 245.758L123.933 261.711L100.793 275.068L100.746 259.068L123.886 245.758Z" fill="#525355"/>
<path d="M100.793 275.068L71.1704 257.888L71.1231 241.935L100.746 259.068L100.793 275.068Z" fill="#373739"/>
<path d="M100.746 259.068L71.1231 241.935L94.2632 228.578L123.886 245.758L100.746 259.068Z" fill="#6D6E71"/>
<path d="M108.507 236.838L85.3668 250.195L85.3195 245.428V242.218L85.2722 212.909L108.412 199.599L108.459 228.909L108.507 232.118V236.838Z" fill="#F9C385"/>
<path d="M85.3668 250.195L82.0543 248.26L67.5741 239.858V235.233L67.4795 202.62L85.2722 212.909L85.3195 242.218V245.428L85.3668 250.195Z" fill="#D9AA74"/>
<path d="M85.2249 212.909L67.4795 202.62L90.6195 189.31L108.412 199.599L85.2249 212.909Z" fill="#FDD9B5"/>
<path d="M83.7582 264.59L83.8055 280.59L60.6656 293.9L60.6183 277.947L83.7582 264.59Z" fill="#525355"/>
<path d="M60.6656 293.9L31.0427 276.72L30.9954 260.767L60.6183 277.947L60.6656 293.9Z" fill="#373739"/>
<path d="M60.6183 277.947L30.9954 260.767L54.1351 247.41L83.7582 264.59L60.6183 277.947Z" fill="#6D6E71"/>
<path d="M71.8805 257.746L48.7406 271.056V266.289L48.6459 233.817L71.7858 220.46L71.8805 252.979V257.746Z" fill="#F9C385"/>
<path d="M48.7406 271.056L48.6459 271.009L30.9954 260.767L30.9479 257.038V248.496L30.9006 223.481V223.528L48.6459 233.817L48.7406 258.077V258.738V266.289V271.056Z" fill="#D9AA74"/>
<path d="M48.6459 233.817L30.8533 223.481L54.0405 210.171L71.7858 220.46L48.6459 233.817Z" fill="#CEE4FC"/>
<path d="M48.7406 258.738L30.9479 248.496L30.9006 223.481V223.528L48.6459 233.817L48.7406 258.738Z" fill="#4E466F"/>
<path d="M108.696 203.469V224.189L48.7406 258.738L48.646 237.829L108.696 203.469Z" fill="#716B8C"/>
<path d="M106.709 152.071L129.612 164.295V113.227L106.709 100.106V152.071Z" fill="#BC7834"/>
<path d="M112.529 201.392L101.077 208L99.4211 208.944L94.3104 211.917L92.5122 212.956L90.9033 213.9L87.165 216.024L83.9472 217.864L82.3382 218.808L81.3918 219.375L80.9659 219.611L74.1517 223.528L73.7732 223.764H73.7258L70.3187 225.746L66.817 227.729L65.2081 228.673L65.1608 228.72L58.2519 232.684L56.643 233.628L44.9548 240.33L44.6708 148.767L56.643 141.876L56.7377 141.829L58.2519 140.932L60.6653 139.563L61.0912 139.327L65.1608 136.968H65.2081L66.817 136.024L73.7258 132.012H73.7732L74.1517 131.776L80.9659 127.858L81.3918 127.622L82.3382 127.103L83.9472 126.159L90.9033 122.147L92.5122 121.204L94.3104 120.165L96.2033 119.08L96.3925 118.985L99.4211 117.239L100.983 116.342L101.077 116.295L105.857 113.51L112.292 109.829L112.529 201.392Z" fill="#F36456"/>
<path d="M44.9548 240.33L18.2659 225.133L18.1713 179.021L18.0293 133.286L44.6708 148.767L44.9548 240.33Z" fill="#B64B41"/>
<path d="M44.6708 148.767L18.0293 133.286L85.6035 94.3953L112.292 109.829L44.6708 148.767Z" fill="#F58378"/>
<path d="M80.8713 162.36L91.6605 165.239L105.809 124.838L92.4649 132.72L86.7864 142.82L82.007 148.767L80.8713 162.36Z" fill="white"/>
<path d="M80.8713 162.36L74.7198 172.13C74.7198 172.13 54.845 161.086 54.987 147.634C55.129 134.183 67.9529 144.425 67.9529 144.425L74.7198 153.062L80.8713 162.36Z" fill="white"/>
<path d="M106.803 117.805C106.803 134.183 80.8713 162.36 80.8713 162.36C80.8713 162.36 54.9396 164.012 54.9396 147.634C54.9396 131.257 66.5332 111.292 80.8714 103.08C95.2096 94.82 106.803 101.428 106.803 117.805Z" fill="#D9AA74"/>
<path d="M24.7489 168.637V225.794L10.0795 217.345V160.189L24.7489 168.637Z" fill="#D9AA74"/>
<path d="M39.4184 160.189V217.345L24.7489 225.794V168.637L39.4184 160.189Z" fill="#F9C385"/>
<path d="M24.7489 168.637V210.266L10.0795 201.817V160.189L24.7489 168.637Z" fill="#B64B41"/>
<path d="M39.4184 160.189V201.817L24.7489 210.266V168.637L39.4184 160.189Z" fill="#F36456"/>
<path d="M24.7489 168.637L10.0795 160.189L24.7487 151.74L39.4184 160.189L24.7489 168.637Z" fill="#F58378"/>
<path d="M129.612 123.658L59.4824 164.059L59.3405 117.9L59.2931 106.855V104.873V104.779V97.0856L59.2458 83.6342L75.8081 74.1003L87.0231 67.6814L94.6418 63.292L117.261 50.2655L126.962 44.649L129.375 43.2802V44.7906L129.423 47.8112V60.2714L129.47 72.9204V73.5811L129.517 85.8525L129.612 123.658Z" fill="#F9C385"/>
<path d="M59.4824 164.059L22.9033 142.82L21.9096 142.254L0.236604 129.699L0 49.3215L59.2458 83.6342L59.2931 104.779L59.3405 117.9L59.4824 164.059Z" fill="#D9AA74"/>
<path d="M59.2458 83.6342L0 49.3215L70.1293 8.92031L129.375 43.2802L59.2458 83.6342Z" fill="#FCB36A"/>
<path d="M91.7078 71.882C91.5185 71.7404 91.2819 71.5516 91.0926 71.41C89.4837 70.1829 88.1589 68.9086 87.0231 67.6814L94.6418 63.292L117.261 50.2655L119.58 48.8968L126.962 44.649L129.375 43.2802V44.7906L129.375 47.8584L129.423 60.2714L129.47 72.9204V73.5811C129.47 73.5811 102.923 80.0944 91.7078 71.882Z" fill="#FBA045"/>
<path d="M94.6418 63.292C94.2632 65.0384 93.4115 67.1151 92.1811 69.3806C91.8026 70.0885 91.424 70.7493 91.0454 71.4572C87.591 77.6401 83.5214 83.4927 78.9313 88.8732C73.8206 94.8673 68.0948 100.295 61.8011 105.062C60.9494 105.676 60.1449 106.336 59.2931 106.95V104.873V97.18L59.2458 83.7758L87.0231 67.7758L94.6418 63.292Z" fill="#FBA045"/>
<path d="M36.5789 180.578L59.4822 192.802V83.6342L36.5789 70.5133V180.578Z" fill="#BC7834"/>
<path d="M22.9033 62.4425V142.82L21.9096 142.254L0.236604 129.699L0 49.3215L22.9033 62.4425Z" fill="#BC7834"/>
<path d="M108.176 88.5428C107.608 89.1564 106.898 89.9116 106.425 89.7228C106.046 89.5812 105.194 88.4012 106.377 86.3245C108.318 82.9735 115.51 78.2065 118.16 77.3098C120.858 76.413 121.378 77.6874 122.561 79.5281C118.35 80.1888 113.949 82.0767 108.176 88.5428Z" fill="#522C21"/>
<path d="M80.6349 105.864C81.2028 105.864 81.8653 105.864 82.3858 105.156C82.7644 104.59 83.7108 102.419 82.5278 101.617C80.6822 100.389 73.5368 103.504 70.8395 105.581C68.1422 107.658 67.527 109.593 66.2967 112.755C70.6029 108.696 75.0037 105.723 80.6349 105.864Z" fill="#522C21"/>
<path d="M80.8785 113.989C82.0656 111.964 82.0768 109.767 80.9036 109.083C79.7304 108.399 77.817 109.487 76.6298 111.512C75.4427 113.537 75.4315 115.734 76.6047 116.418C77.7779 117.102 79.6914 116.014 80.8785 113.989Z" fill="#3A1C14"/>
<path d="M117.545 90.3835C117.545 92.2714 116.172 94.6313 114.516 95.5753C112.86 96.5192 111.488 95.7641 111.488 93.8762C111.488 91.9882 112.86 89.6284 114.516 88.6844C116.22 87.6933 117.545 88.4956 117.545 90.3835Z" fill="#3A1C14"/>
<path d="M19.2596 60.4602L41.4058 73.298L39.7969 115.257L18.0293 131.162L19.2596 60.4602Z" fill="#BC7834"/>
<path d="M36.5791 116.956V135.174L24.8908 141.923L24.8435 123.752L36.5791 116.956Z" fill="#F9C385"/>
<path d="M36.579 121.534V131.445L30.238 135.127L30.1907 125.215L36.579 121.534Z" fill="#522C21"/>
<path d="M24.8908 141.923L21.9569 140.177L21.9095 122.006L24.8435 123.752L24.8908 141.923Z" fill="#D9AA74"/>
<path d="M24.8435 123.752L21.9095 122.006L33.645 115.257L36.5789 117.003L24.8435 123.752Z" fill="#FBDBB6"/>
<path d="M99.7996 132.673L97.9068 133.758C94.0738 135.976 90.9979 133.617 90.9979 128.566L106.708 119.504C106.708 124.555 103.633 130.454 99.7996 132.673Z" fill="white"/>
<path d="M97.0551 18.6431L97.1024 37.6166L59.0091 59.5635L58.9618 40.59L97.0551 18.6431Z" fill="#FBA045"/>
<path d="M59.0091 59.5635L26.8309 40.9204L26.7363 21.9469L58.9618 40.59L59.0091 59.5635Z" fill="#BC7834"/>
<path d="M58.9618 40.59L26.7363 21.9469L64.8767 0L97.0551 18.6431L58.9618 40.59Z" fill="#FCB36A"/>
<path d="M57.3054 126.442V128.755L54.9867 127.434L31.4682 113.888V111.575L54.9867 125.121L57.3054 126.442Z" fill="#F36456"/>
<path d="M99.0897 91.5634V97.1327C99.0897 100.106 99.5629 102.749 100.509 104.92L90.7613 110.537C91.5184 107.705 91.897 104.873 91.897 102.136V95.1976L54.9394 116.484V143.764L76.4704 131.351C82.1962 128.047 87.2122 120.968 89.8622 113.274L101.361 106.667C102.26 108.13 103.396 109.263 104.721 110.018C106.046 110.773 107.513 111.15 109.122 111.15C111.157 111.15 113.381 110.49 115.605 109.215L136 97.4631V70.1829L99.0897 91.5634ZM75.382 129.416L57.3054 139.799V117.852L89.6256 99.2566V102.136C89.6256 105.44 89.0104 108.838 87.922 112.189C87.5908 113.18 87.2122 114.171 86.8336 115.115C84.1837 121.345 80.0194 126.726 75.382 129.416ZM133.729 96.236L114.516 107.327C111.346 109.168 108.317 109.451 105.999 108.13C105.005 107.563 104.153 106.714 103.443 105.628C103.112 105.062 102.781 104.496 102.544 103.835C101.834 101.994 101.408 99.7286 101.408 97.1799V92.9321L133.729 74.3363V96.236Z" fill="#F36456"/>
</svg>
