<svg width="201" height="235" viewBox="0 0 201 235" fill="none" xmlns="http://www.w3.org/2000/svg">
<path d="M201 175.485L98.1402 235L97.932 167.003L97.7932 116.596L200.653 57.0814L200.792 101.717L201 175.485Z" fill="#F9C385"/>
<path d="M200.792 101.717C198.085 99.7707 196.142 96.7115 193.227 95.0429C178.929 86.9778 164.978 90.8018 160.883 93.5133C155.331 97.1982 143.462 105.124 137.355 108.044C129.373 111.938 114.936 123.132 108.482 145.797C106.261 153.654 102.305 160.815 97.932 166.864L97.7932 116.457L200.653 56.9423L200.792 101.717Z" fill="#593C40"/>
<path d="M98.1402 235L0.277625 177.919L0 59.5148L97.7932 116.596L97.932 167.003L98.1402 235Z" fill="#D9AA74"/>
<path d="M97.932 167.003C86.1329 176.737 63.576 148.717 55.4555 169.297C53.0262 175.485 55.5943 182.577 54.1367 189.112C52.7486 195.092 48.2372 199.472 43.0318 202.948L0.277625 177.919L0 59.5148L97.7932 116.596L97.932 167.003Z" fill="#473438"/>
<path d="M97.7932 116.527L0 59.5148L102.86 0L200.653 57.0814L97.7932 116.527Z" fill="#8C6A5E"/>
<path d="M169.559 123.757C168.726 124.661 167.685 125.774 166.991 125.496C166.436 125.287 165.186 123.549 166.922 120.49C169.767 115.553 180.317 108.531 184.204 107.21C188.16 105.889 188.923 107.766 190.658 110.478C184.412 111.451 178.027 114.232 169.559 123.757Z" fill="#522C21"/>
<path d="M127.221 142.251C128.054 142.251 129.026 142.251 129.789 141.209C130.345 140.374 131.733 137.176 129.998 135.994C127.291 134.186 116.81 138.775 112.854 141.834C108.898 144.893 107.996 147.744 106.191 152.402C112.507 146.423 118.962 142.043 127.221 142.251Z" fill="#522C21"/>
<path d="M115.561 166.655C115.422 166.655 115.283 166.655 115.214 166.516C114.867 166.308 114.798 165.891 115.006 165.543C118.129 160.537 122.224 156.365 126.388 153.723C130.692 151.012 134.925 150.038 138.465 150.942C138.812 151.012 139.09 151.429 138.951 151.777C138.882 152.124 138.465 152.402 138.118 152.263C134.995 151.429 131.039 152.402 127.152 154.905C123.126 157.408 119.24 161.51 116.186 166.308C116.047 166.516 115.769 166.655 115.561 166.655Z" fill="#522C21"/>
<path d="M166.505 136.272C166.366 136.272 166.228 136.203 166.089 136.133C165.742 135.925 165.672 135.507 165.95 135.16C169.351 130.362 173.515 126.538 177.749 124.314C182.052 122.019 186.217 121.602 189.548 122.993C189.895 123.132 190.034 123.549 189.895 123.896C189.756 124.244 189.34 124.383 188.993 124.244C186.078 122.993 182.33 123.479 178.374 125.565C174.348 127.651 170.322 131.405 167.06 135.994C166.922 136.203 166.713 136.272 166.505 136.272Z" fill="#522C21"/>
<path d="M155.886 190.99C147.835 195.648 141.311 199.68 141.311 190.433L170.531 173.538C170.531 182.786 163.937 186.331 155.886 190.99Z" fill="white"/>
<path d="M64.6171 192.45L47.4043 202.392L47.3349 175.624L64.5477 165.682V172.356L64.6171 186.957V192.45Z" fill="#F9C385"/>
<path d="M64.6171 186.957L55.1778 192.38V177.849L64.5477 172.356L64.6171 186.957Z" fill="#522C21"/>
<path d="M47.4043 202.392L43.1012 199.889L43.0318 173.052L47.3349 175.624L47.4043 202.392Z" fill="#D9AA74"/>
<path d="M47.3349 175.624L43.0318 173.052L60.1751 163.109L64.5477 165.682L47.3349 175.624Z" fill="#FBDBB6"/>
</svg>
