<svg width="36" height="43" viewBox="0 0 36 43" fill="none" xmlns="http://www.w3.org/2000/svg">
<path d="M36 10.773L35.9365 32.227L18.0191 43L18.0826 21.5592L36 10.773Z" fill="#593C40"/>
<path d="M18.0826 21.5592L18.0191 43L0 32.227L0.0508326 10.773L18.0826 21.5592Z" fill="#473438"/>
<path d="M36 10.773L18.0826 21.5592L0.0508326 10.773L17.9682 0L36 10.773Z" fill="#8C6A5E"/>
<path d="M36 10.7844L35.9746 16.1437L18.0509 26.9413L18.0636 21.5689L36 10.7844Z" fill="#42A94E"/>
<path d="M18.0636 21.5689L18.0509 26.9413L0 16.1437L0.0127197 10.7844L18.0636 21.5689Z" fill="#4C793E"/>
<path d="M36 10.7844L18.0636 21.5689L0.0127197 10.7844L17.9491 0L36 10.7844Z" fill="#80C74F"/>
</svg>
