<svg width="24" height="497" viewBox="0 0 24 497" fill="none" xmlns="http://www.w3.org/2000/svg">
<path opacity="0.5" d="M13.0607 0.93934C12.4749 0.353553 11.5251 0.353553 10.9393 0.93934L1.3934 10.4853C0.807612 11.0711 0.807612 12.0208 1.3934 12.6066C1.97919 13.1924 2.92893 13.1924 3.51472 12.6066L12 4.12132L20.4853 12.6066C21.0711 13.1924 22.0208 13.1924 22.6066 12.6066C23.1924 12.0208 23.1924 11.0711 22.6066 10.4853L13.0607 0.93934ZM10.9394 496.061C11.5251 496.646 12.4749 496.646 13.0607 496.061L22.6066 486.515C23.1924 485.929 23.1924 484.979 22.6066 484.393C22.0208 483.808 21.0711 483.808 20.4853 484.393L12 492.879L3.51474 484.393C2.92895 483.808 1.97921 483.808 1.39342 484.393C0.807633 484.979 0.807633 485.929 1.39342 486.515L10.9394 496.061ZM10.5 2L10.5 495L13.5 495L13.5 2L10.5 2Z" fill="white"/>
</svg>
