<svg width="148" height="316" viewBox="0 0 148 316" fill="none" xmlns="http://www.w3.org/2000/svg">
<path d="M138.904 180.809L123.265 189.855L123.214 170.997L123.061 128.069L138.699 119.075L138.852 161.952L138.904 180.809Z" fill="#8E3332"/>
<path d="M138.904 180.809L123.265 189.855L123.214 170.997L138.852 161.952L138.904 180.809Z" fill="#D9AA74"/>
<path d="M123.265 189.855L107.27 180.554L107.219 161.798L107.065 118.768L123.061 128.069L123.214 170.997L123.265 189.855Z" fill="#8E3332"/>
<path d="M123.265 189.855L107.27 180.554L107.219 161.798L123.214 170.997L123.265 189.855Z" fill="#D9AA74"/>
<path d="M123.061 128.069L107.065 118.768L122.703 109.774L138.699 119.075L123.061 128.069Z" fill="#CA6969"/>
<path d="M141.816 264.468L141.867 281.742L116.877 296.153L116.826 278.88L141.816 264.468Z" fill="#525355"/>
<path d="M116.877 296.153L84.8849 277.602L84.8338 260.278L116.826 278.88L116.877 296.153Z" fill="#373739"/>
<path d="M116.826 278.88L84.8338 260.278L109.824 245.866L141.816 264.468L116.826 278.88Z" fill="#6D6E71"/>
<path d="M125.105 214.488L125.207 254.809L100.217 269.221L100.114 228.899L125.105 214.488Z" fill="#3C3656"/>
<path d="M100.217 269.221L81.0013 258.08L80.899 217.758L100.114 228.899L100.217 269.221Z" fill="#2A253B"/>
<path d="M100.114 228.899L80.899 217.758L105.889 203.296L125.105 214.488L100.114 228.899Z" fill="#433C60"/>
<path d="M102.312 283.786L102.363 301.111L77.3219 315.522L77.2708 298.249L102.312 283.786Z" fill="#525355"/>
<path d="M77.3219 315.522L45.3303 296.92L45.2792 279.646L77.2708 298.249L77.3219 315.522Z" fill="#373739"/>
<path d="M77.2708 298.249L45.2792 279.646L70.3206 265.184L102.312 283.786L77.2708 298.249Z" fill="#6D6E71"/>
<path d="M85.5499 233.805L85.7033 274.178L60.7129 288.59L60.5596 248.268L85.5499 233.805Z" fill="#3C3656"/>
<path d="M60.7129 288.59L41.4975 277.449L41.3953 237.127L60.5596 248.268L60.7129 288.59Z" fill="#2A253B"/>
<path d="M60.5596 248.268L41.3953 237.127L66.3855 222.664L85.5499 233.805L60.5596 248.268Z" fill="#433C60"/>
<path d="M129.602 213.159L102.159 229.001L83.9653 239.529L56.573 255.32L56.3175 156.177L73.9998 145.956L112.124 123.93L129.295 114.015L129.602 213.159Z" fill="#BD4443"/>
<path d="M56.573 255.32L27.8008 238.609L27.4942 139.414L56.3175 156.177L56.573 255.32Z" fill="#8E3332"/>
<path d="M56.3175 156.177L27.4942 139.414L100.523 97.3039L129.295 114.015L56.3175 156.177Z" fill="#885234"/>
<path d="M112.124 123.93L102.159 229.001L83.9653 239.529L73.9998 145.956L112.124 123.93Z" fill="white"/>
<path d="M97.3034 197.47L96.7924 198.696L95.7192 201.098L91.7841 209.99L86.2648 203.858L86.4692 198.083L86.5203 195.374L86.7247 189.344L86.8269 186.584L87.0314 180.554L87.0825 177.794L87.2869 171.764L87.3891 169.055L87.5424 163.025L87.6446 160.265L87.849 154.235V153.264L88.1557 151.577L88.7178 147.949L89.9443 140.181L94.1861 137.728L95.1059 144.167L95.7192 148.767L95.8725 154.082L95.9747 156.892L96.1791 163.025L96.2813 165.836L96.4858 172.019L96.588 174.779L96.7924 180.963L96.8946 183.774L97.0479 189.906L97.1501 192.717L97.3034 197.47Z" fill="#4E466F"/>
<path d="M97.3038 141.51L91.7845 148.051L86.2652 147.898V138.903L97.3038 132.515V141.51Z" fill="#4E466F"/>
<path d="M95.9747 156.892L87.849 154.235V153.264L88.1557 151.577L95.8725 154.082L95.9747 156.892Z" fill="#C2DDFB"/>
<path d="M96.2813 165.836L87.5424 163.025L87.6446 160.265L96.1791 163.025L96.2813 165.836Z" fill="#C2DDFB"/>
<path d="M96.588 174.779L87.2869 171.764L87.3891 169.055L96.4858 172.019L96.588 174.779Z" fill="#C2DDFB"/>
<path d="M96.8946 183.774L87.0314 180.554L87.0825 177.794L96.7924 180.963L96.8946 183.774Z" fill="#C2DDFB"/>
<path d="M97.1501 192.717L86.7247 189.344L86.8269 186.584L97.0479 189.906L97.1501 192.717Z" fill="#C2DDFB"/>
<path d="M96.7924 198.696L95.7192 201.098L86.4692 198.083L86.5203 195.374L96.7924 198.696Z" fill="#C2DDFB"/>
<path d="M73.9998 145.956L63.1655 180.809L72.0067 183.774L65.4652 198.236L83.9653 239.529L73.9998 145.956Z" fill="#CA6969"/>
<path d="M112.124 123.93L120.557 160.725L113.811 170.026L121.068 175.903L102.159 229.001L112.124 123.93Z" fill="#D78D8C"/>
<path d="M50.4914 231.761L34.8533 240.807L34.8022 221.949L34.6489 179.021L50.287 170.026L50.4403 212.903L50.4914 231.761Z" fill="#BD4443"/>
<path d="M50.4914 231.761L34.8533 240.807L34.8022 221.949L50.4403 212.903L50.4914 231.761Z" fill="#D9AA74"/>
<path d="M34.8533 240.807L18.8575 231.506L18.8064 212.75L18.6531 169.72L34.6489 179.021L34.8022 221.949L34.8533 240.807Z" fill="#8E3332"/>
<path d="M34.8533 240.807L18.8575 231.506L18.8064 212.75L34.8022 221.949L34.8533 240.807Z" fill="#A17E56"/>
<path d="M34.6489 179.021L18.6531 169.72L34.2913 160.725L50.287 170.026L34.6489 179.021Z" fill="#CA6969"/>
<path d="M148 128.989L72.2625 172.735L72.1092 122.754L72.0069 85.703L147.796 41.9571L147.847 74.7665L148 128.989Z" fill="#F9C385"/>
<path d="M147.847 74.7665C145.854 73.3356 144.423 71.0871 142.276 69.8605C131.749 63.9324 121.477 66.7431 118.461 68.7362C114.373 71.4448 105.634 77.2708 101.137 79.4172C95.2597 82.279 84.6299 90.5069 79.8771 107.167C78.2418 112.942 75.3288 118.206 72.1092 122.652L72.0069 85.6009L147.745 41.855L147.847 74.7665Z" fill="#593C40"/>
<path d="M72.2625 172.735L31.6851 149.124L0.255525 130.778L0 43.7458L72.0069 85.703L72.1092 122.754L72.2625 172.735Z" fill="#D9AA74"/>
<path d="M72.1092 122.754C63.4213 129.909 46.8121 109.313 40.8329 124.441C39.0442 128.989 40.9351 134.202 39.8619 139.005C38.8398 143.401 35.5179 146.62 31.6851 149.175L0.255525 130.778L0 43.7458L72.0069 85.703L72.1092 122.754Z" fill="#473438"/>
<path d="M72.0069 85.6519L0 43.7458L75.7376 0L147.796 41.9571L72.0069 85.6519Z" fill="#8C6A5E"/>
<path d="M124.85 90.9668C124.236 91.6312 123.47 92.4489 122.959 92.2444C122.55 92.0911 121.63 90.8135 122.908 88.5649C125.003 84.9364 132.771 79.7748 135.633 78.8038C138.546 77.8328 139.108 79.2127 140.385 81.2058C135.837 81.9212 131.084 83.9654 124.85 90.9668Z" fill="#593C40"/>
<path d="M93.7265 104.561C94.3398 104.561 95.0552 104.561 95.6174 103.794C96.0262 103.181 97.0483 100.83 95.7707 99.9614C93.7776 98.6326 86.0608 102.006 83.1478 104.254C80.2348 106.503 79.5704 108.598 78.2417 112.022C82.8411 107.627 87.5939 104.407 93.7265 104.561Z" fill="#593C40"/>
<path d="M85.1409 122.499C85.0386 122.499 84.9364 122.499 84.8853 122.396C84.6298 122.243 84.5787 121.936 84.732 121.681C87.0317 118.001 90.0469 114.935 93.1132 112.993C96.2817 111 99.3991 110.284 102.005 110.949C102.261 111 102.465 111.307 102.363 111.562C102.312 111.818 102.005 112.022 101.75 111.92C99.4502 111.307 96.5373 112.022 93.6754 113.862C90.7113 115.702 87.8494 118.717 85.6008 122.243C85.4475 122.396 85.2942 122.499 85.1409 122.499Z" fill="#593C40"/>
<path d="M122.601 100.166C122.499 100.166 122.397 100.115 122.294 100.064C122.039 99.9102 121.988 99.6036 122.192 99.3481C124.696 95.8218 127.763 93.011 130.88 91.3757C134.049 89.6892 137.115 89.3826 139.568 90.4047C139.823 90.5069 139.926 90.8135 139.823 91.069C139.721 91.3246 139.415 91.4268 139.159 91.3246C137.013 90.4047 134.253 90.7624 131.34 92.2956C128.376 93.8287 125.412 96.5884 123.01 99.9613C122.959 100.115 122.805 100.166 122.601 100.166Z" fill="#593C40"/>
<path d="M114.833 140.385C108.905 143.809 104.101 146.773 104.101 139.977L125.616 127.558C125.565 134.355 120.761 136.961 114.833 140.385Z" fill="white"/>
<path d="M47.6298 141.458L34.9558 148.767L34.9047 129.091L47.5787 121.783V126.689V137.421L47.6298 141.458Z" fill="#F9C385"/>
<path d="M47.5787 137.421L40.6796 141.407L40.6285 130.726L47.5787 126.689V137.421Z" fill="#593C40"/>
<path d="M34.9558 148.767L31.7364 146.927L31.6853 127.2L34.9047 129.091L34.9558 148.767Z" fill="#D9AA74"/>
<path d="M34.9047 129.091L31.6853 127.2L44.3592 119.892L47.5277 121.783L34.9047 129.091Z" fill="#FBDBB6"/>
</svg>
